<?xml version="1.0" encoding="UTF-8" standalone="no"?>
<!-- Created with Inkscape (http://www.inkscape.org/) -->

<svg
   xmlns:dc="http://purl.org/dc/elements/1.1/"
   xmlns:cc="http://creativecommons.org/ns#"
   xmlns:rdf="http://www.w3.org/1999/02/22-rdf-syntax-ns#"
   xmlns:svg="http://www.w3.org/2000/svg"
   xmlns="http://www.w3.org/2000/svg"
   xmlns:xlink="http://www.w3.org/1999/xlink"
   xmlns:sodipodi="http://sodipodi.sourceforge.net/DTD/sodipodi-0.dtd"
   xmlns:inkscape="http://www.inkscape.org/namespaces/inkscape"
   id="svg3390"
   version="1.1"
   inkscape:version="0.91 r13725"
   width="500"
   height="500"
   viewBox="0 0 500 500"
   sodipodi:docname="RSGlogoArgentina.svg">
  <metadata
     id="metadata3396">
    <rdf:RDF>
      <cc:Work
         rdf:about="">
        <dc:format>image/svg+xml</dc:format>
        <dc:type
           rdf:resource="http://purl.org/dc/dcmitype/StillImage" />
        <dc:title></dc:title>
      </cc:Work>
    </rdf:RDF>
  </metadata>
  <defs
     id="defs3394">
    <clipPath
       clipPathUnits="userSpaceOnUse"
       id="clipPath3850">
      <ellipse
         style="fill:none;fill-rule:evenodd;stroke:#000000;stroke-width:1.72629249px;stroke-linecap:butt;stroke-linejoin:miter;stroke-opacity:1"
         id="ellipse3852"
         cx="398.37631"
         cy="250.87025"
         rx="154.68341"
         ry="163.32181" />
    </clipPath>
  </defs>
  <sodipodi:namedview
     pagecolor="#ffffff"
     bordercolor="#666666"
     borderopacity="1"
     objecttolerance="10"
     gridtolerance="10"
     guidetolerance="10"
     inkscape:pageopacity="0"
     inkscape:pageshadow="2"
     inkscape:window-width="1920"
     inkscape:window-height="1059"
     id="namedview3392"
     showgrid="false"
     inkscape:zoom="0.905935"
     inkscape:cx="102.91088"
     inkscape:cy="299.36646"
     inkscape:window-x="1920"
     inkscape:window-y="21"
     inkscape:window-maximized="1"
     inkscape:current-layer="svg3390" />
  <g
     id="g3816"
     transform="matrix(0.52216661,-0.18966415,0.17849575,0.49141877,21.218407,229.11612)"
     clip-path="url(#clipPath3850)">
    <rect
       id="rect3758"
       height="500"
       width="800"
       x="0"
       y="0"
       style="fill:#74acdf" />
    <rect
       id="rect3760"
       height="166.67"
       width="800"
       y="166.67"
       x="0"
       style="fill:#ffffff" />
    <g
       id="rays">
      <path
         d="m 396.84,251.31 28.454,61.992 c 0,0 0.4896,1.185 1.28,0.8586 0.7902,-0.3267 0.2988,-1.5116 0.2988,-1.5116 l -23.715,-63.956 m -0.68,24.12 c -0.3465,9.4278 5.4526,14.613 4.6943,23.032 -0.7569,8.42 3.8673,13.18 4.9396,16.454 1.0733,3.2744 -1.16,5.2323 -0.198,5.6982 0.96336,0.4662 3.07,-2.1207 2.3833,-6.7756 -0.68675,-4.6549 -4.2204,-6.0368 -3.3898,-16.32 0.83,-10.283 -4.206,-12.678 -2.98,-22.058"
         id="ray1"
         inkscape:connector-curvature="0"
         style="fill:#f6b40e;stroke:#85340a;stroke-width:1.11160004" />
      <use
         id="use3764"
         transform="matrix(0.92387953,0.38268343,-0.38268343,0.92387953,126.11905,-134.04326)"
         xlink:href="#ray1"
         x="0"
         y="0"
         width="100%"
         height="100%" />
      <use
         id="use3766"
         transform="matrix(0.70710678,0.70710678,-0.70710678,0.70710678,293.93398,-209.61941)"
         xlink:href="#ray1"
         x="0"
         y="0"
         width="100%"
         height="100%" />
      <use
         id="use3768"
         transform="matrix(0.38268343,0.92387953,-0.92387953,0.38268343,477.89651,-215.22267)"
         xlink:href="#ray1"
         x="0"
         y="0"
         width="100%"
         height="100%" />
      <path
         d="m 404.31,274.41 c 0.45334,9.0538 5.5867,13.063 4.5787,21.314 2.2133,-6.5249 -3.1233,-11.583 -2.82,-21.22 m -7.6487,-23.757 19.487,42.577 -16.329,-43.887"
         id="ray2"
         inkscape:connector-curvature="0"
         style="fill:#85340a" />
      <use
         id="use3771"
         transform="matrix(0.92387953,0.38268343,-0.38268343,0.92387953,126.11905,-134.04326)"
         xlink:href="#ray2"
         x="0"
         y="0"
         width="100%"
         height="100%" />
      <use
         id="use3773"
         transform="matrix(0.70710678,0.70710678,-0.70710678,0.70710678,293.93398,-209.61941)"
         xlink:href="#ray2"
         x="0"
         y="0"
         width="100%"
         height="100%" />
      <use
         id="use3775"
         transform="matrix(0.38268343,0.92387953,-0.92387953,0.38268343,477.89651,-215.22267)"
         xlink:href="#ray2"
         x="0"
         y="0"
         width="100%"
         height="100%" />
    </g>
    <use
       id="use3777"
       transform="matrix(0,1,-1,0,650,-150)"
       xlink:href="#rays"
       x="0"
       y="0"
       width="100%"
       height="100%" />
    <use
       id="use3779"
       transform="matrix(-1,0,0,-1,800,500)"
       xlink:href="#rays"
       x="0"
       y="0"
       width="100%"
       height="100%" />
    <use
       id="use3781"
       transform="matrix(0,-1,1,0,150,650)"
       xlink:href="#rays"
       x="0"
       y="0"
       width="100%"
       height="100%" />
    <circle
       id="circle3783"
       cx="400"
       cy="250"
       r="27.778"
       style="fill:#f6b40e;stroke:#85340a;stroke-width:1.5" />
    <path
       d="m 409.47,244.06 c -1.8967,3e-5 -3.7131,0.82183 -4.7812,2.5312 2.1367,1.9227 6.8565,2.1318 10.062,-0.21875 -1.3883,-1.4954 -3.3845,-2.3125 -5.2812,-2.3125 z m -0.0312,0.4375 c 1.8462,-0.0335 3.5717,0.81446 3.8125,1.6562 -2.1367,2.3504 -5.5508,2.1463 -7.6875,0.4375 0.9348,-1.4957 2.4391,-2.0677 3.875,-2.0938 z"
       id="loweyecontour"
       inkscape:connector-curvature="0"
       style="fill:#843511" />
    <use
       id="use3786"
       transform="matrix(-1,0,0,1,800.25,0)"
       xlink:href="#uppalpebra"
       x="0"
       y="0"
       width="100%"
       height="100%" />
    <use
       id="use3788"
       transform="matrix(-1,0,0,1,800.25,0)"
       xlink:href="#eyebrow_nose"
       x="0"
       y="0"
       width="100%"
       height="100%" />
    <use
       id="use3790"
       transform="translate(18.862,0)"
       xlink:href="#pupil"
       x="0"
       y="0"
       width="100%"
       height="100%" />
    <use
       id="use3792"
       transform="matrix(-1,0,0,1,800.25,0)"
       xlink:href="#lowpalpebra"
       x="0"
       y="0"
       width="100%"
       height="100%" />
    <path
       id="path3794"
       d="m 395.75,253.84 c -0.91341,0.16668 -1.5625,0.97727 -1.5625,1.9062 0,1.0614 0.87748,1.9062 1.9375,1.9062 0.62667,0 1.2025,-0.2968 1.5625,-0.8125 0.73952,0.55614 1.7646,0.61511 2.3125,0.625 0.0843,0.002 0.19312,0 0.25,0 0.54791,-0.01 1.573,-0.0689 2.3125,-0.625 0.36,0.5157 0.93583,0.8125 1.5625,0.8125 1.06,0 1.9375,-0.84488 1.9375,-1.9062 0,-0.92898 -0.64918,-1.7396 -1.5625,-1.9062 0.513,0.1809 0.84375,0.6765 0.84375,1.2188 0,0.7074 -0.57124,1.2812 -1.2812,1.2812 -0.6804,0 -1.2413,-0.54015 -1.2812,-1.2188 -0.20862,0.41637 -1.0341,1.6551 -2.6562,1.7188 -1.6222,-0.0636 -2.4476,-1.3024 -2.6562,-1.7188 -0.04,0.6786 -0.60085,1.2188 -1.2812,1.2188 -0.71001,0 -1.2812,-0.57385 -1.2812,-1.2812 0,-0.54225 0.33075,-1.0378 0.84375,-1.2188 z"
       inkscape:connector-curvature="0"
       style="fill:#85340a" />
    <path
       id="path3796"
       d="m 397.84,259.53 c -2.138,0 -2.9829,1.9368 -4.9062,3.2188 1.0687,-0.42633 1.9096,-1.2693 3.4062,-2.125 1.496,-0.85442 2.7717,0.1875 3.625,0.1875 l 0.0312,0 c 0.8532,0 2.129,-1.0416 3.625,-0.1875 1.4967,0.8559 2.3688,1.6987 3.4375,2.125 -1.9233,-1.282 -2.7996,-3.2188 -4.9375,-3.2188 -0.4266,0 -1.2716,0.23055 -2.125,0.65625 l -0.0312,0 C 399.11166,259.75983 398.2667,259.53 397.84,259.53 Z"
       inkscape:connector-curvature="0"
       style="fill:#85340a" />
    <path
       id="path3798"
       d="m 397.12,262.06 c -0.8439,0.0374 -1.9596,0.20675 -3.5625,0.6875 3.8473,-0.85434 4.6962,0.4375 6.4062,0.4375 l 0.0312,0 c 1.71,0 2.5588,-1.292 6.4062,-0.4375 -4.2744,-1.282 -5.1242,-0.4375 -6.4062,-0.4375 l -0.0312,0 c -0.80125,0 -1.4372,-0.3124 -2.8438,-0.25 z"
       inkscape:connector-curvature="0"
       style="fill:#85340a" />
    <path
       id="path3800"
       d="m 393.75,262.72 c -0.24819,0.003 -0.51871,0.005 -0.8125,0.0312 4.488,0.42766 2.3306,3 7.0312,3 l 0.0312,0 c 4.7007,0 2.5745,-2.5724 7.0625,-3 -4.7007,-0.4266 -3.2146,2.3438 -7.0625,2.3438 l -0.0312,0 c -3.6075,0 -2.4959,-2.4215 -6.2188,-2.375 z"
       inkscape:connector-curvature="0"
       style="fill:#85340a" />
    <path
       id="path3802"
       d="m 403.85,269.66 c 0,-2.1234 -1.7233,-3.8465 -3.8463,-3.8465 -2.1233,0 -3.8463,1.723 -3.8463,3.8465 0.423,-1.781 2.0166,-3.0393 3.8463,-3.0393 1.8333,0 3.424,1.2586 3.8463,3.0393 l 0,0 0,0 z"
       inkscape:connector-curvature="0"
       style="fill:#85340a" />
    <path
       d="m 382.73,244.02 c 4.9146,-4.2729 11.11,-4.9147 14.53,-1.7086 0.837,1.1207 1.3733,2.319 1.5934,3.5696 0.4302,2.433 -0.3303,5.0617 -2.2367,7.7559 0.2151,-0.001 0.6435,0.2124 0.8568,0.4266 1.6967,-3.244 2.2967,-6.5761 1.74,-9.7454 -0.1458,-0.828 -0.3735,-1.643 -0.6696,-2.4357 -4.7007,-3.8452 -11.11,-4.2729 -15.811,2.1377 z"
       id="eyebrow_nose"
       inkscape:connector-curvature="0"
       style="fill:#85340a" />
    <path
       d="m 390.42,242.74 c 2.7767,0 3.4186,0.6417 4.7007,1.71 1.2833,1.0683 1.9233,0.8541 2.1367,1.0683 0.2124,0.2142 0,0.8541 -0.4266,0.6399 -0.4266,-0.2142 -1.2833,-0.6399 -2.5633,-1.7086 -1.2833,-1.0696 -2.5633,-1.0683 -3.8463,-1.0683 -3.8463,0 -5.983,3.2046 -6.4094,2.9907 -0.4266,-0.2142 2.1367,-3.6325 6.4094,-3.6325 z"
       id="uppalpebra"
       inkscape:connector-curvature="0"
       style="fill:#85340a" />
    <use
       id="use3806"
       transform="translate(-19.181,0)"
       xlink:href="#loweyecontour"
       x="0"
       y="0"
       width="100%"
       height="100%" />
    <circle
       r="1.923"
       cx="390.54001"
       cy="246.14999"
       id="pupil"
       style="fill:#85340a" />
    <path
       d="m 385.29,247.44 c 3.6327,2.7783 7.265,2.5644 9.4017,1.282 2.1367,-1.282 2.1367,-1.7086 1.71,-1.7086 -0.4266,0 -0.8532,0.4266 -2.5633,1.281 -1.71,0.8559 -4.273,0.8559 -8.546,-0.8541 z"
       id="lowpalpebra"
       inkscape:connector-curvature="0"
       style="fill:#85340a" />
  </g>
  <path
     style="fill:#000000"
     d="m 221.89294,497.79028 c -5.04501,-2.86084 -6.03599,-8.77942 -1.84549,-11.02211 2.26588,-1.21265 2.33101,-1.55225 0.625,-3.25826 -2.67824,-2.67824 -2.36754,-6.19718 0.80843,-9.15603 2.54731,-2.3732 2.58546,-2.66832 0.625,-4.83462 -1.14837,-1.26893 -2.08794,-4.06907 -2.08794,-6.22253 0,-7.19674 7.90737,-11.3756 18.76866,-9.91878 4.1372,0.55491 5.15258,0.20586 6.82465,-2.34604 1.34495,-2.05265 3.13765,-2.99794 5.6855,-2.99794 3.13594,0 3.72119,0.49149 3.72119,3.125 0,2.26 -0.67159,3.125 -2.42623,3.125 -3.37091,0 -4.01428,1.58043 -2.45928,6.0411 2.81183,8.06606 -3.72833,13.72469 -16.05199,13.88835 -3.67378,0.0488 -5.3125,0.60766 -5.3125,1.81181 0,2.34468 2.78131,3.25874 9.9157,3.25874 8.13251,0 13.2027,1.99453 14.97867,5.89238 2.0727,4.54907 -0.23885,9.64307 -5.51111,12.14492 -4.89359,2.32216 -22.43769,2.63553 -26.25826,0.46901 z m 22.5,-7.25631 c 0,-1.43203 -1.88954,-1.96406 -7.99804,-2.25196 -7.98776,-0.37648 -11.1846,0.77939 -9.53549,3.44771 0.54792,0.88654 3.97934,1.27667 9.20358,1.04641 6.40789,-0.28243 8.32995,-0.7998 8.32995,-2.24216 z m -3.89341,-25.29513 c 1.07495,-1.71691 0.78602,-2.74281 -1.38345,-4.91228 -2.35662,-2.35662 -3.18899,-2.53858 -5.92015,-1.29418 -3.08832,1.40714 -4.39647,6.11645 -2.28542,8.2275 1.59673,1.59673 8.1946,0.20613 9.58902,-2.02104 z M 49.08044,489.97838 c -2.234375,-1.00305 -4.071114,-2.27276 -4.081641,-2.82157 -0.0105,-0.54881 -0.485714,-1.73352 -1.05597,-2.63266 -0.821259,-1.29493 -1.986786,-1.07434 -5.605859,1.06097 l -4.56903,2.69579 0,-3.63284 c 0,-2.87931 1.154818,-4.44684 5.567451,-7.55715 9.66315,-6.81121 15.345798,-18.34474 11.261967,-22.85731 -2.634412,-2.911 -6.573784,-3.11229 -12.494567,-0.63843 l -4.334851,1.81123 0,-3.75652 c 0,-3.26563 0.756,-4.09091 5.785503,-6.31569 11.141498,-4.92843 22.964497,-2.79518 22.964497,4.14351 0,1.26844 0.25373,2.30626 0.563845,2.30626 0.310115,0 4.48043,-2.04585 9.267368,-4.54633 6.88864,-3.59831 10.18904,-4.5678 15.82753,-4.6493 5.93594,-0.0857 7.50091,0.36248 9.38404,2.68805 1.24302,1.53507 2.445027,3.3227 2.671127,3.97252 0.2261,0.64982 3.91962,-0.5604 8.20782,-2.68938 13.39581,-6.65066 26.57827,-4.8933 26.57827,3.54318 0,3.37342 0.90311,3.58685 4.30141,1.01651 4.03866,-3.0547 4.63085,-2.09292 1.94859,3.16475 -1.40295,2.75 -3.07093,5 -3.70662,5 -1.70405,0 -11.29338,13.80632 -11.29338,16.25975 0,3.95828 4.49268,6.63746 9.91143,5.91066 4.21194,-0.56494 5.25472,-0.22802 6.85543,2.21498 1.82691,2.78822 1.72376,2.94695 -3.19387,4.91458 -12.54652,5.02013 -21.33025,3.12394 -24.3133,-5.24862 -0.0634,-0.178 -3.52442,1.43457 -7.6911,3.5835 -12.778797,6.59054 -26.568587,5.06836 -26.568587,-2.93275 0,-1.32574 -0.42188,-2.22294 -0.9375,-1.99376 -0.51563,0.22916 -4.59375,2.23244 -9.0625,4.45172 -9.914653,4.92385 -16.688605,6.0029 -22.187503,3.53435 z m 21.913803,-11.00374 c 8.02683,-4.00878 17.7737,-15.26236 17.7737,-20.52121 0,-11.24 -17.67558,-6.78065 -28.773447,7.25922 -10.124627,12.80861 -3.671352,20.58909 10.999747,13.26199 z m 37.563217,-0.4449 c 10.23904,-5.10232 17.82839,-16.94417 14.78843,-23.07473 -4.8466,-9.77393 -28.221877,3.56083 -31.510147,17.97541 -1.01123,4.43287 2.21809,8.35355 6.8805,8.35355 1.820957,0 6.249507,-1.4644 9.841217,-3.25423 z m 43.0041,7.4022 c 0.34647,-1.25013 3.62934,-11.69485 7.29528,-23.21047 l 6.66536,-20.9375 6.40829,0 6.40829,0 6.66451,21.5625 c 3.66547,11.85937 6.92894,22.29944 7.25214,23.20012 0.44356,1.23613 -0.8822,1.5426 -5.40738,1.25 -5.61336,-0.36295 -6.0884,-0.66615 -7.4616,-4.76262 -1.45182,-4.33104 -1.53967,-4.375 -8.74351,-4.375 -7.20405,0 -7.29164,0.0439 -8.74241,4.375 -1.28972,3.8503 -2.03535,4.42272 -6.21717,4.77297 -4.08478,0.34213 -4.6633,0.079 -4.1218,-1.875 z m 22.89929,-19.94743 c -0.45546,-1.8147 -1.5628,-5.04908 -2.46075,-7.1875 l -1.63264,-3.88804 -1.494,5.39069 c -0.82168,2.96487 -1.80426,6.19925 -2.18348,7.1875 -0.52333,1.36372 0.42988,1.79681 3.95473,1.79681 4.39517,0 4.59984,-0.17696 3.81614,-3.29946 z m 23.05709,5.17446 0,-16.875 4.375,0 c 3.30672,0 4.375,0.52574 4.375,2.15314 0,1.76985 0.34639,1.65858 1.94587,-0.625 1.07024,-1.52798 3.03899,-2.77814 4.375,-2.77814 1.97514,0 2.42913,0.87909 2.42913,4.70359 0,3.66487 -0.6162,4.97608 -2.79031,5.9375 -4.17245,1.84511 -5.92075,6.5302 -5.94127,15.92141 l -0.0184,8.4375 -4.375,0 -4.375,0 0,-16.875 z m 67.20321,14.91826 c -4.70284,-2.55172 -7.20321,-7.96708 -7.20321,-15.60082 0,-10.66362 6.05012,-17.44244 15.56744,-17.44244 9.04838,0 15.68256,6.31916 15.68256,14.93792 l 0,3.81208 -10.625,0 c -9.41745,0 -10.625,0.25698 -10.625,2.26109 0,2.80191 2.39571,5.88524 5.38191,6.92665 1.47834,0.51555 3.31835,-0.27437 5.33381,-2.28983 2.40087,-2.40086 3.89613,-2.91304 6.80559,-2.33115 4.78199,0.9564 4.69348,2.21845 -0.52131,7.43324 -3.68816,3.68816 -5.05145,4.24339 -10.3125,4.19995 -3.33438,-0.0275 -7.6023,-0.88554 -9.48429,-1.90669 z m 14.04679,-21.54326 c 0,-4.97189 -5.01775,-6.75264 -8.96408,-3.18126 -3.96856,3.5915 -2.8375,5.43126 3.33908,5.43126 4.58334,0 5.625,-0.41666 5.625,-2.25 z m 17.08334,22.66666 c -0.45834,-0.45832 -0.83334,-8.05207 -0.83334,-16.875 l 0,-16.04166 5,0 c 3.85926,0 5,0.48155 5,2.1107 0,1.77659 0.40345,1.67765 2.5487,-0.625 3.57401,-3.83625 10.37151,-3.67913 14.38311,0.33249 2.90325,2.90323 3.06819,3.84398 3.06819,17.5 l 0,14.43181 -5,0 -5,0 0,-12.45602 c 0,-11.40554 -0.22314,-12.57544 -2.64583,-13.87203 -4.78392,-2.56028 -6.54481,1.00457 -7.1324,14.43932 l -0.51997,11.88873 -4.01756,0 c -2.20967,0 -4.39258,-0.375 -4.8509,-0.83334 z m 41.9448,-1.11254 c -2.51594,-1.76223 -2.77814,-2.99273 -2.77814,-13.03806 0,-10.55132 -0.13714,-11.11166 -2.8125,-11.49162 -2.01376,-0.286 -2.92483,-1.37568 -3.20803,-3.83694 -0.33636,-2.92322 0.0631,-3.4375 2.67057,-3.4375 2.6756,0 3.17353,-0.71641 3.90962,-5.625 0.81168,-5.41261 1.00581,-5.625 5.14193,-5.625 4.26107,0 4.29841,0.0489 4.29841,5.625 0,5.44374 0.1235,5.625 3.83302,5.625 3.44404,0 3.79289,0.34885 3.4375,3.4375 -0.31233,2.71455 -1.12961,3.52176 -3.88601,3.83814 l -3.49047,0.40064 0.36547,8.97436 c 0.35665,8.75736 0.44861,8.98392 3.80299,9.36989 2.87892,0.33126 3.4375,0.99138 3.4375,4.0625 0,3.54426 -0.19984,3.66697 -5.97186,3.66697 -3.38193,0 -7.17673,-0.84391 -8.75,-1.94588 z m 19.72186,-14.92912 0,-16.875 5,0 5,0 0,16.875 0,16.875 -5,0 -5,0 z m 18.75,0.0755 0,-16.95046 4.375,0 c 3.25799,0 4.375,0.53435 4.375,2.09289 0,1.77716 0.43644,1.68287 2.89306,-0.625 3.96696,-3.72677 10.11511,-3.57335 14.03875,0.35029 2.90325,2.90324 3.06819,3.84399 3.06819,17.5 l 0,14.43178 -5,0 -5,0 0,-12.34695 c 0,-9.74054 -0.41793,-12.69379 -1.97978,-13.99001 -1.43301,-1.18929 -2.55497,-1.28177 -4.0625,-0.33482 -1.63688,1.0282 -2.21651,3.95609 -2.70772,13.67752 l -0.625,12.36926 -4.6875,0.38796 -4.6875,0.38795 0,-16.95045 z m 37.59072,13.50596 c -2.92027,-3.71252 -3.22293,-6.45123 -1.20288,-10.88477 1.64863,-3.61835 5.65257,-5.63515 13.25657,-6.6774 5.9326,-0.81315 7.86476,-2.99588 5.34238,-6.03517 -2.14205,-2.58102 -5.43117,-2.32115 -8.11179,0.64092 -2.40471,2.65717 -10.625,3.56068 -10.625,1.16782 0,-9.89177 21.71165,-13.73455 28.39775,-5.02615 0.98301,1.28035 1.53684,6.96771 1.5625,16.04583 l 0.0397,14.06246 -4.41423,0 c -2.75167,0 -4.68263,-0.69943 -5.12685,-1.85704 -0.63036,-1.64271 -1.0186,-1.64271 -3.3639,0 -1.45821,1.02138 -5.01655,1.85704 -7.90743,1.85704 -4.18945,0 -5.7819,-0.6684 -7.84687,-3.29358 z m 16.7134,-5.73456 c 2.62019,-3.74089 2.48717,-7.2219 -0.27598,-7.2219 -5.06145,0 -9.82453,6.28694 -6.9448,9.16666 1.71585,1.71586 5.34055,0.73962 7.22078,-1.9448 z m -39.51331,-43.1594 c -9.34665,-11.51562 -26.68567,-32.75 -38.53117,-47.1875 -11.8455,-14.4375 -22.59732,-27.58832 -23.89294,-29.22405 l -2.35566,-2.97406 -9.22222,4.49695 c -14.78415,7.20907 -26.71171,10.0168 -42.66382,10.04298 -17.309,0.0284 -27.15624,-2.37156 -44.08338,-10.74408 -7.05835,-3.49122 -13.01192,-6.12269 -13.23015,-5.8477 -0.21823,0.27497 -11.31822,13.15946 -24.66663,28.63217 -13.34842,15.47271 -30.4451,35.32789 -37.99265,44.12261 -12.40574,14.45569 -13.87632,15.77469 -15.32217,13.74279 -0.87965,-1.23618 -2.68517,-3.15332 -4.0123,-4.26031 -2.32282,-1.93753 -1.63387,-2.92155 18.44717,-26.34798 11.47306,-13.38441 27.55783,-32.1662 35.74395,-41.73731 8.18611,-9.5711 15.99507,-18.64266 17.35325,-20.159 l 2.4694,-2.757 -5.84634,-6.50252 c -10.10353,-11.23757 -18.3088,-27.36204 -21.3707,-41.99638 -0.93343,-4.4613 -1.88655,-8.30089 -2.11806,-8.5324 -0.4615,-0.46149 -101.843097,-4.32971 -113.476831,-4.32971 -6.850304,0 -7.295562,-2.15013 -8.780043,1.43373 -2.042856,4.93189 -7.625291,11.88208 -13.795848,13.73083 -9.973262,2.98806 -21.75764,-4.03762 -25.016415,-14.91445 -4.318349,-14.41336 10.725213,-29.69642 25.016415,-25.41467 6.170557,1.84875 11.362728,8.01841 13.405584,12.9503 1.417874,3.42305 2.493903,2.21727 7.739898,2.24655 3.182213,0.0177 27.160853,0.84882 53.28585,1.84681 26.125,0.99799 50.651,1.8272 54.50222,1.84271 l 7.00224,0.0281 0.75058,-9.6875 c 1.36645,-17.63659 7.53442,-33.30371 19.12428,-48.57715 3.71013,-4.8893 6.74568,-9.1854 6.74568,-9.54688 0,-0.36147 -14.6545,-18.57989 -32.56556,-40.48535 l -32.56557,-39.82806 5.89067,-1.00001 c 3.28775,-0.55814 6.21648,-0.51254 6.62806,0.10312 2.1176,3.16806 60.46701,74.02183 60.95837,74.02183 0.31823,0 2.92994,-1.61183 5.8038,-3.58185 7.85897,-5.38725 16.73909,-9.59606 27.13175,-12.85933 7.97248,-2.50333 11.91132,-2.92922 26.84348,-2.90245 13.23896,0.0238 19.30797,0.5817 24.92535,2.29156 7.84856,2.38902 22.73369,9.46212 28.53037,13.55704 1.90064,1.34267 3.97974,2.25645 4.6202,2.03062 1.02149,-0.36017 28.92624,-32.35492 53.77832,-61.66059 17.17993,-20.25866 17.14401,-20.22461 18.98777,-17.99538 0.91189,1.10254 2.88546,2.81628 4.38571,3.80831 3.11649,2.06076 5.53957,-1.0731 -38.97772,50.41139 -12.375,14.31175 -24.11973,27.9454 -26.09938,30.297 l -3.59937,4.27563 3.78659,3.97652 c 5.58927,5.86965 13.29768,18.41844 17.00948,27.69034 3.67929,9.1907 7.02768,26.47497 7.02768,36.27667 l 0,6.53802 21.5625,0.80851 c 11.85937,0.44467 30.04324,1.15604 40.40859,1.58079 l 18.84607,0.77227 2.66758,-4.52121 c 9.43093,-15.98425 32.49346,-12.6325 37.92982,5.51247 4.22725,14.1093 -10.99892,29.33548 -25.10822,25.10823 -6.44124,-1.92984 -12.06204,-6.7451 -13.94193,-11.94384 l -1.50266,-4.15556 -12.61838,-0.76934 c -6.94011,-0.42307 -25.55587,-1.12822 -41.36837,-1.56692 l -28.75,-0.79763 -3.56611,11.44603 c -4.02292,12.91221 -12.02755,26.20798 -22.0193,36.57425 -3.49252,3.62341 -6.11718,7.16977 -5.83257,7.88077 0.49195,1.22904 18.56278,23.53623 60.16798,74.27324 10.3125,12.57596 18.9509,23.41839 19.19645,24.09429 0.44477,1.2243 -4.56728,7.30021 -6.02199,7.30021 -0.42061,0 -8.412,-9.42187 -17.75865,-20.9375 z m -95.41581,-77.3186 c 20.03009,-5.08339 39.71445,-19.83751 50.85467,-38.11737 11.35468,-18.63174 15.17938,-43.04844 9.92093,-63.33469 -6.60345,-25.47505 -21.22276,-43.82341 -44.15163,-55.41365 -41.46657,-20.96082 -93.23698,-3.52138 -113.53887,38.24681 -7.08971,14.58604 -9.10831,24.58293 -8.32933,41.25 1.96944,42.13773 32.20682,73.92296 75.86923,79.75297 5.98847,0.79961 21.9276,-0.49401 29.375,-2.38407 z m -19.44878,-86.7439 c -184.12944,152.14402 -92.06472,76.07201 0,0 z m 81.32378,173.75 c 0,-5 0,-5 5,-5 5,0 5,0 5,5 0,5 0,5 -5,5 -5,0 -5,0 -5,-5 z M 14.890246,122.34195 c -3.76444,-1.61184 -4.406628,-2.43048 -3.916778,-4.99296 0.665968,-3.48379 2.081637,-3.74121 6.544472,-1.19002 4.39285,2.51118 8.332701,2.2923 11.25,-0.625 3.855796,-3.8558 3.066153,-6.55009 -4.358365,-14.8709 -7.908819,-8.863583 -9.108435,-12.189503 -6.716219,-18.620613 2.381286,-6.40173 11.356288,-11.02826 18.250333,-9.40788 3.917412,0.92075 4.767817,1.69837 5.111372,4.67391 0.335419,2.90507 0.02299,3.42009 -1.678625,2.76711 -7.470604,-2.86674 -13.675737,-1.56411 -15.494342,3.25269 -1.342018,3.55449 -0.0096,6.21667 6.78224,13.55082 6.092766,6.579283 7.395192,9.751043 6.331766,15.419583 -1.688999,9.00314 -12.773545,14.03914 -22.105854,10.04326 z m 42.97759,0.6361 c -4.243116,-1.66026 -4.752662,-6.52371 -1.761897,-16.81674 3.26545,-11.238383 3.276275,-11.877343 0.201232,-11.877343 -1.673797,0 -2.230666,-0.59964 -1.741263,-1.875 0.395727,-1.03125 1.833183,-1.875 3.194348,-1.875 1.601945,0 2.974091,-1.32266 3.890312,-3.75 0.996513,-2.64007 2.250047,-3.75 4.235169,-3.75 2.466336,0 2.725716,0.46995 2.069703,3.75 -0.645097,3.22549 -0.378472,3.75 1.906253,3.75 1.52777,0 2.65625,0.79657 2.65625,1.875 0,1.22928 -1.23026,1.875 -3.57234,1.875 -3.422529,0 -3.690758,0.44065 -6.396179,10.507843 -1.553111,5.77932 -2.40859,11.17973 -1.901061,12.00093 0.555937,0.89953 2.353283,1.20699 4.521177,0.77341 2.962883,-0.59258 3.598403,-0.2967 3.598403,1.6753 0,1.31724 -0.42188,2.63165 -0.937503,2.92093 -2.46568,1.38327 -7.465745,1.79264 -9.962604,0.81567 z m 29.924267,-0.64274 c -3.31682,-2.32319 -3.61109,-7.43058 -1.02967,-17.87091 0.95947,-3.88049 2.09518,-8.602313 2.52381,-10.492933 0.58155,-2.56513 1.53197,-3.4375 3.74507,-3.4375 l 2.96575,0 -2.33247,10.312503 c -3.26428,14.43228 -3.16289,17.1875 0.63244,17.1875 1.666,0 4.66573,-1.37714 6.666057,-3.06031 2.9908,-2.51659 4.03552,-4.95949 5.88026,-13.75 2.06784,-9.853583 2.47969,-10.689693 5.26559,-10.689693 3.46088,0 3.49299,-0.50775 -1.26483,20.000003 -2.39434,10.32039 -3.11969,11.92729 -5.54059,12.27444 -1.86726,0.26775 -2.78558,-0.24735 -2.78558,-1.5625 0,-2.40923 -0.57964,-2.43987 -4.106477,-0.2171 -4.70928,2.96799 -7.71865,3.33824 -10.61936,1.3065 z m 46.719197,0.0394 c -5.17825,-2.70044 -6.91113,-5.50374 -6.93305,-11.21571 -0.0393,-10.23181 8.57589,-19.704953 19.39589,-21.327513 5.91004,-0.88626 5.67575,-0.52092 8.56726,-13.35999 0.84601,-3.75648 5.72654,-5.02955 5.72654,-1.49374 0,4.34044 -10.49984,47.497803 -11.76308,48.349613 -2.35145,1.5856 -11.20501,1.02307 -14.99356,-0.95265 z m 13.76151,-15.30066 c 1.47605,-6.37173 2.27913,-11.835013 1.78462,-12.140643 -1.83923,-1.1367 -9.69669,1.94957 -12.46459,4.89587 -1.74782,1.860473 -3.1062,5.193893 -3.48462,8.551103 -0.55252,4.90205 -0.23802,5.80262 2.88403,8.25842 6.40106,5.03508 8.26444,3.45514 11.28056,-9.56475 z m 28.40605,15.38776 c -5.01571,-2.1818 -6.66092,-5.27189 -6.66092,-12.51077 0,-10.915853 5.88689,-19.106173 14.56464,-20.263523 7.23951,-0.96552 11.68536,2.95789 11.68536,10.31221 l 0,5.534283 -10,0 -10,0 0,3.83218 c 0,8.39314 5.47395,11.07253 13.81207,6.76072 2.33299,-1.20644 3.68793,-1.40587 3.68793,-0.54282 0,3.24708 -2.86184,6.18285 -7.20221,7.38825 -5.6493,1.56892 -5.03332,1.60073 -9.88687,-0.51053 z m 14.58908,-22.927803 c 0,-5.06799 -6.04785,-6.95165 -10.21408,-3.18127 -4.09892,3.709483 -2.84226,5.431273 3.96408,5.431273 5.18519,0 6.25,-0.38333 6.25,-2.250003 z m 17.90109,22.045763 c 0.39955,-1.60642 2.20738,-9.24888 4.01741,-16.98326 3.02724,-12.935623 3.52361,-14.062503 6.1942,-14.062503 2.37856,0 2.77287,0.49855 2.18186,2.7586 l -0.72139,2.75859 3.50699,-2.75859 c 4.7893,-3.76727 11.25676,-3.68262 13.78795,0.18045 1.7348,2.64765 1.73346,3.85602 -0.0135,12.187503 -3.47085,16.5525 -4.23844,18.62345 -6.90279,18.62345 -3.0574,0 -3.05056,-1.08536 0.0917,-14.56168 2.82694,-12.123963 2.59712,-14.201113 -1.5668,-14.160533 -5.89816,0.0575 -8.92256,4.12357 -12.23121,16.443963 -2.74939,10.2379 -3.49029,11.70435 -6.10017,12.07401 -2.55792,0.36229 -2.86975,0.0149 -2.24425,-2.5 z m 50.55173,1.39291 c -4.53891,-2.70755 -4.97868,-5.73589 -2.26785,-15.61695 3.06039,-11.155233 3.16155,-13.071723 0.69003,-13.071723 -1.03125,0 -1.875,-0.84375 -1.875,-1.875 0,-1.17162 1.18402,-1.875 3.15625,-1.875 2.50695,0 3.31054,-0.77145 3.90625,-3.75 0.58887,-2.9444 1.4091,-3.75 3.81807,-3.75 2.75867,0 2.985,0.37818 2.24443,3.75 -0.74699,3.40102 -0.52724,3.75 2.36145,3.75 2.31764,0 2.98914,0.51065 2.46559,1.875 -0.39574,1.03125 -2.08324,1.875 -3.75,1.875 -3.37077,0 -3.64915,0.50802 -6.74767,12.313443 -2.52335,9.61409 -1.61368,12.08092 4.03812,10.95056 3.82421,-0.76484 4.35898,0.14349 1.94501,3.30367 -2.03283,2.66121 -7.22875,3.76496 -9.98468,2.121 z m 41.10037,-1.25474 c -7.65982,-2.22936 -12.07243,-9.41434 -12.02574,-19.58128 0.0362,-7.901033 3.76645,-15.914753 8.56225,-18.394753 6.21492,-3.21387 14.46141,-2.56644 18.84596,1.4796 2.04881,1.89062 4.08741,4.98437 4.53023,6.875 0.75911,3.24102 0.55878,3.4375 -3.50474,3.4375 -3.38416,0 -4.61569,-0.67121 -5.73371,-3.125 -1.88508,-4.1373 -7.98909,-4.33368 -10.78157,-0.34687 -2.88142,4.11381 -2.65655,17.441253 0.34005,20.153133 4.04337,3.6592 11.46408,2.00452 11.46408,-2.55626 0,-0.97222 -1.50641,-1.625 -3.75,-1.625 -3.33334,0 -3.75,-0.41667 -3.75,-3.75 l 0,-3.75 8.125,0 8.125,0 0,10.625 c 0,8.24843 -0.38949,10.625 -1.74126,10.625 -0.9577,0 -2.07257,-0.86336 -2.47749,-1.91857 -0.64313,-1.67596 -1.09471,-1.69476 -3.57124,-0.14871 -4.00402,2.49966 -8.50111,3.21071 -12.65682,2.00121 z m 77.5,0.0437 c -7.77778,-2.35885 -12.05319,-9.44517 -12.05319,-19.97763 0,-12.409363 5.97184,-20.000003 15.73476,-20.000003 10.68493,0 16.38129,5.77971 17.63109,17.88907 1.53986,14.919903 -8.98455,25.827453 -21.31266,22.088563 z m 9.75093,-10.25577 c 1.19423,-1.705 1.94588,-5.46032 1.94588,-9.72186 0,-7.967073 -2.44856,-12.500003 -6.75215,-12.500003 -4.89416,0 -7.24785,3.98545 -7.24785,12.272663 0,4.08351 0.63854,8.61769 1.41897,10.07595 1.95048,3.64449 8.04454,3.57186 10.63515,-0.12675 z m 26.54037,9.7425 c -2.62928,-0.95355 -4.94372,-1.92624 -5.14318,-2.16154 -2.42749,-2.86357 -3.20131,-8.08368 -3.20131,-21.595643 l 0,-15.70718 5,0 5,0 0,14.75 c 0,16.286023 0.58402,17.750003 7.08102,17.750003 5.75044,0 6.66898,-2.57116 6.66898,-18.667823 l 0,-13.83218 3.75,0 3.75,0 0,14.91862 c 0,8.205253 -0.53739,16.332083 -1.19421,18.059633 -2.44052,6.41905 -13.10852,9.60605 -21.7113,6.48611 z m -85.84449,-19.60613 0,-20.141783 13.12174,0.48573 c 15.15091,0.56085 17.8342,2.0818 18.99945,10.76936 0.58037,4.32704 0.19218,5.57872 -2.59435,8.365253 -1.80227,1.80227 -3.27684,3.74379 -3.27684,4.31449 0,0.5707 1.40625,4.21742 3.125,8.10382 1.71875,3.8864 3.125,7.33139 3.125,7.65554 0,0.32415 -2.19046,0.58936 -4.86769,0.58936 -4.80524,0 -4.90767,-0.10024 -7.98451,-7.8125 -2.59488,-6.50425 -3.66364,-7.87873 -6.3823,-8.20803 -3.22929,-0.39114 -3.2655,-0.3045 -3.2655,7.8125 l 0,8.20803 -5,0 -5,0 z m 21,-3.858233 c 2.14305,-2.14305 1.85305,-6.84705 -0.47724,-7.74126 -1.08747,-0.41731 -3.89997,-0.75874 -6.25,-0.75874 -4.15156,0 -4.27276,0.14183 -4.27276,5 0,4.95614 0.0416,5 4.75,5 2.6125,0 5.425,-0.675 6.25,-1.5 z m 95.25,4.000003 0,-20.000003 10.3125,0.0184 c 11.20744,0.02 14.99202,1.3155 18.78969,6.43174 3.11373,4.19484 2.09765,11.21363 -2.25322,15.564503 -2.42933,2.42933 -4.27636,2.98534 -9.91716,2.98534 l -6.93181,0 0,7.5 0,7.5 -5,0 -5,0 0,-20 z m 21.03345,-6.006303 c 0.60349,-4.25704 -1.95791,-6.4937 -7.4365,-6.4937 -4.83236,0 -4.84695,0.0153 -4.84695,5.06849 l 0,5.06849 5.9375,-0.38099 c 5.11225,-0.32804 5.99427,-0.78146 6.34595,-3.26229 z M 22.390294,66.421677 c -3.221181,-2.17076 -4.247354,-3.75214 -4.247354,-6.54538 0,-5.67235 3.941369,-5.68547 6.308139,-0.021 2.499725,5.98268 6.514984,7.78933 12.996115,5.84754 5.986769,-1.79368 10.070746,-6.63339 10.070746,-11.93432 0,-4.34913 -1.855535,-7.53429 -8.967956,-15.39413 -6.274271,-6.93361 -6.606181,-13.17586 -1.037796,-19.5179 4.940425,-5.62684 9.850455,-7.52563 17.54771,-6.78603 3.444655,0.33099 6.45595,0.82381 6.691766,1.09515 0.792697,0.91212 -2.260315,14.86835 -3.252546,14.86835 -0.539648,0 -0.981178,-2.41875 -0.981178,-5.375 0,-2.95625 -0.675,-6.05 -1.5,-6.875 -2.491809,-2.49181 -8.077749,-1.6939 -12.154094,1.73612 -6.032163,5.07573 -5.376838,10.0469 2.466093,18.70734 3.4716,3.83346 6.86983,8.43714 7.551624,10.23039 5.340717,14.04715 -18.161829,28.94657 -31.491269,19.96387 z m 50.152469,-4.95021 c -8.445865,-4.31506 -12.883709,-10.71392 -13.518686,-19.49238 -1.063082,-14.69697 9.075466,-25.44997 23.983636,-25.43718 32.276787,0.0277 38.006627,0.79777 41.339457,5.55605 2.76837,3.95239 2.46545,11.30561 -0.57923,14.06101 -2.93605,2.65708 -3.21709,4.375 -0.71573,4.375 2.84176,0 6.96573,6.22553 6.96573,10.51544 0,5.09233 -3.02744,9.31022 -8.24822,11.4916 -5.02239,2.09849 -22.584277,1.785075 -23.254387,-0.225255 -0.33633,-1.00899 -1.80065,-0.425475 -5.41666,0.578395 -7.67305,2.13028 -14.5307,1.65565 -20.55591,-1.42268 z m 22.98503,-6.37211 c 3.14484,-2.06058 3.24015,-2.50739 3.24015,-15.19039 0,-12.79392 -0.0701,-13.11331 -3.35073,-15.26285 -4.87426,-3.19374 -16.70451,-2.99229 -21.19578,0.36092 -5.89391,4.40044 -8.370159,8.74766 -8.370159,14.69437 0,11.38067 8.323079,18.87709 19.989019,18.00368 3.54605,-0.26549 7.90542,-1.43807 9.6875,-2.60573 z m 24.750017,1.37211 c 3.28131,-2.5794 3.78302,-6.54883 1.22673,-9.70572 -1.78183,-2.20047 -3.96724,-3.00315 -9.40394,-3.45401 l -7.08266,-0.58735 0,7.65479 0,7.65479 6.63609,0 c 3.64984,0 7.53054,-0.70313 8.62378,-1.5625 z m -3.06592,-21.25 c 4.87806,-6.09723 1.28313,-12.1875 -7.19395,-12.1875 l -5,0 0,6.875 0,6.875 5.47194,0 c 3.00957,0 6.03448,-0.70313 6.72202,-1.5625 z m 108.80154,23.277 c -8.87578,-3.71102 -12.50719,-18.63574 -7.31627,-30.0691 2.81963,-6.21043 7.74759,-9.1454 15.35557,-9.1454 6.18841,0 10.16426,2.32529 12.84735,7.5138 2.73378,5.28655 2.352,6.2362 -2.50714,6.2362 -2.40625,0 -4.375,-0.52232 -4.375,-1.16071 0,-2.15214 -3.90745,-5.08929 -6.77055,-5.08929 -4.85741,0 -7.36494,4.15502 -7.47681,12.38923 -0.0759,5.58592 0.47495,8.01415 2.26728,9.99467 2.60367,2.877 8.13058,3.4656 10.48008,1.1161 2.66804,-2.66804 1.68184,-4.75 -2.25,-4.75 -3.33334,0 -3.75,-0.41667 -3.75,-3.75 l 0,-3.75 8.125,0 8.125,0 0,10.625 c 0,8.70789 -0.11557,11.210395 -1.4264,11.210395 -1.31084,0 -2.22072,0.431244 -2.71328,-0.852351 -0.49256,-1.283595 -1.48447,-3.140704 -3.78852,-1.683754 -4.44206,2.80891 -9.87401,3.23581 -14.82631,1.16521 z m 58.5577,0.76313 c -7.91215,-2.39961 -12.30319,-9.52967 -12.30319,-19.97763 0,-12.37803 6.13784,-20 16.10565,-20 7.66459,0 12.00167,2.61118 14.85315,8.94248 4.42331,9.82131 1.86897,24.84057 -4.95815,29.15343 -3.72029,2.35019 -9.52391,3.14748 -13.69746,1.88172 z m 10.08737,-11.22763 c 0.86493,-1.71875 1.57259,-5.65625 1.57259,-8.75 0,-7.92201 -2.2366,-11.78635 -7.0961,-12.2605 -4.63158,-0.45192 -6.25288,1.75462 -7.39114,10.05913 -0.49225,3.59135 -0.078,6.98416 1.23724,10.13182 1.78171,4.26422 2.37934,4.69342 6.04107,4.33847 2.85175,-0.27643 4.53279,-1.32595 5.63634,-3.51892 z m -150.89056,-8.86378 0,-20.11378 13.23551,0.42628 c 12.7151,0.40952 13.35405,0.56418 16.25,3.93348 4.1491,4.82728 4.04579,11.20014 -0.25124,15.49716 l -3.26572,3.26573 3.26572,7.95221 c 1.79615,4.37371 3.26573,8.22231 3.26573,8.55245 0,0.33014 -2.20079,0.60025 -4.89065,0.60025 -4.84846,0 -4.91633,-0.0674 -7.86631,-7.8125 -2.53739,-6.66185 -3.47402,-7.87076 -6.35935,-8.20803 -3.37488,-0.3945 -3.38369,-0.37415 -3.38369,7.8125 l 0,8.20803 -5,0 -5,0 z m 21,-3.88622 c 2.14305,-2.14305 1.85305,-6.84705 -0.47724,-7.74126 -1.08747,-0.41731 -3.89997,-0.75874 -6.25,-0.75874 -4.15156,0 -4.27276,0.14183 -4.27276,5 0,4.95614 0.0416,5 4.75,5 2.6125,0 5.425,-0.675 6.25,-1.5 z m 19,4 0,-20 14.375,0 14.375,0 0,3.75 0,3.75 -9.375,0 -9.375,0 0,4.375 0,4.375 7.5,0 c 7.5,0 7.5,0 7.5,3.75 0,3.75 0,3.75 -7.5,3.75 l -7.5,0 0,4.375 0,4.375 9.375,0 9.375,0 0,3.75 0,3.75 -14.375,0 -14.375,0 z m 72.5,0 0,-20 5,0 5,0 0,20 0,20 -5,0 -5,0 z m 56.25,0 0,-20 4.91244,0 c 4.80355,0 5.02366,0.20089 9.92936,9.0625 8.34719,15.07826 8.33926,15.07603 7.88199,2.21862 l -0.40122,-11.28112 3.83872,0 3.83871,0 0,20.0792 -0.19513,19.493805 -3.86737,0.193695 c -3.72579,0.186604 -4.65356,-1.43612 -10.9375,-12.53995 -3.78125,-6.68153 -7.15625,-12.16713 -7.5,-12.19022 -0.34375,-0.0231 -0.44701,5.58425 -0.22949,12.46075 l 0.39553,12.50272 -3.83303,0 -3.83301,0 z m 35.02739,19.0625 c 0.015,-0.51563 2.7275,-9.375 6.02765,-19.6875 l 6.00025,-18.75 5.47286,0 5.47285,0 5.97826,18.75 c 3.28804,10.3125 5.98781,19.17187 5.9995,19.6875 0.0113,0.51562 -2.18407,0.9375 -4.87944,0.9375 -4.42883,0 -4.97998,-0.36106 -5.72432,-3.75 -0.79278,-3.60951 -1.07993,-3.75 -7.66434,-3.75 -6.47695,0 -6.91022,0.19941 -8.14796,3.75 -1.04754,3.00495 -2.02801,3.75 -4.93499,3.75 -1.99524,0 -3.61539,-0.42188 -3.60032,-0.9375 z m 19.87655,-16.25 c -0.0529,-1.20313 -0.7847,-4.4375 -1.62638,-7.1875 l -1.5303,-5 -2.12364,6.16017 c -2.78185,8.06953 -2.75307,8.21483 1.62638,8.21483 2.77469,0 3.72501,-0.56893 3.65394,-2.1875 z m 20.09606,-2.8125 0,-20 4.375,0 4.375,0 0,16.25 0,16.25 8.125,0 8.125,0 0,3.75 0,3.75 -12.5,0 -12.5,0 z m -371.258297,9.0625 c -0.0046,-2.57813 1.470785,-9.91528 3.278552,-16.30478 1.807769,-6.3895 2.929585,-11.97455 2.492925,-12.41121 -0.43666,-0.43666 -2.474509,0.44858 -4.528554,1.9672 -2.706162,2.00076 -3.734626,2.28129 -3.734626,1.01871 0,-1.92401 7.767896,-7.60552 12.193657,-8.91856 4.612075,-1.36831 4.710642,2.20352 0.476096,17.25274 -2.160188,7.67712 -3.925845,14.66152 -3.923683,15.5209 0.006,2.37938 3.092396,1.86534 5.62893,-0.9375 2.440419,-2.69663 4.375,-3.25284 4.375,-1.25784 0,2.06776 -10.169406,8.75784 -13.312547,8.75784 -2.559582,0 -2.93852,-0.603 -2.94575,-4.6875 z M 27.101274,8.4506373 c -1.412696,-1.4127 -0.922985,-5.03615 0.883231,-6.53518 2.227256,-1.84845996 5.783435,-0.46357 5.783435,2.25225 0,3.71186 -4.406697,6.5428997 -6.666666,4.28293 z"
     id="path3919"
     inkscape:connector-curvature="0"
     sodipodi:nodetypes="ssssssssssssssssssssssssssssscsscsssscssssscssssssssssscsscssssssssssscscccssssssscsscscssccssssssscccccsssscsssssssssssscscssssscccssscscssssssssssscssssscccccccccccssssscccssssccccccssssssscsssscccsscccsscssscssssssscssssssssscsccsssscscsssssscssssscssscsscsssscsscsscsssccssssssssccssssssssssssssssssssssssssssssssscssssscsssssssssscsssssccsssssssssscccssssssssssssscssssssssssssssssssssssssscsssssssssscccssssssssssssssssscscccssscccsssccssssssssssccccssssssccsssscccccccssscssssssssssssssssssssssssssscssssssssssscccsscscccsccsssssssssssscccszzsssssssssssscssccssscssssssccccssssssccccccccccssscccccccccccccccccccccssscccccsscscccccscccscsssssccscsscccccccccccccccsssssssssscssss" />
  <rect
     style="fill:none"
     id="rect3921"
     width="18.765142"
     height="20.972807"
     x="269.33499"
     y="263.77997" />
  <rect
     style="fill:none"
     id="rect3923"
     width="16.391068"
     height="24.586603"
     x="268.50131"
     y="266.62241" />
</svg>
